<?xml version="1.0" encoding="UTF-8" standalone="no"?>
<svg
   xmlns:dc="http://purl.org/dc/elements/1.1/"
   xmlns:cc="http://creativecommons.org/ns#"
   xmlns:rdf="http://www.w3.org/1999/02/22-rdf-syntax-ns#"
   xmlns:svg="http://www.w3.org/2000/svg"
   xmlns="http://www.w3.org/2000/svg"
   xmlns:sodipodi="http://sodipodi.sourceforge.net/DTD/sodipodi-0.dtd"
   xmlns:inkscape="http://www.inkscape.org/namespaces/inkscape"
   width="594mm"
   height="420mm"
   viewBox="0 0 594 420"
   version="1.1"
   id="svg909"
   inkscape:version="1.0 (4035a4fb49, 2020-05-01)"
   sodipodi:docname="comet_logo_fullword_dark.svg">
  <defs
     id="defs903" />
  <sodipodi:namedview
     id="base"
     pagecolor="#ffffff"
     bordercolor="#666666"
     borderopacity="1.0"
     inkscape:pageopacity="0.0"
     inkscape:pageshadow="2"
     inkscape:zoom="1"
     inkscape:cx="381.45768"
     inkscape:cy="567.45363"
     inkscape:document-units="mm"
     inkscape:current-layer="layer1"
     inkscape:document-rotation="0"
     showgrid="false"
     showborder="true"
     inkscape:snap-global="false"
     inkscape:window-width="2880"
     inkscape:window-height="1526"
     inkscape:window-x="-11"
     inkscape:window-y="-11"
     inkscape:window-maximized="1" />
  <metadata
     id="metadata906">
    <rdf:RDF>
      <cc:Work
         rdf:about="">
        <dc:format>image/svg+xml</dc:format>
        <dc:type
           rdf:resource="http://purl.org/dc/dcmitype/StillImage" />
        <dc:title></dc:title>
      </cc:Work>
    </rdf:RDF>
  </metadata>
  <g
     inkscape:label="Layer 1"
     inkscape:groupmode="layer"
     id="layer1">
    <path
       d="M 13.530043,48.909187 C 25.662585,59.880453 42.28242,74.448357 49.989749,91.331891 43.669023,88.786506 35.77656,84.6108 30.713151,80.219224 c 14.826235,13.191975 23.074914,27.321696 45.463881,45.168326 -6.34117,-2.70599 -8.283108,-0.92694 -16.714534,-7.1901 21.68775,26.94003 56.421182,53.47268 79.795362,23.90485 C 163.68404,109.35261 121.72945,84.58669 94.316663,75.041314 103.28132,81.546635 101.02486,81.172158 105.536,86.631468 85.735771,74.080857 67.071388,69.390189 48.112147,57.288603 53.827366,60.810692 59.119682,68.079893 63.422015,73.335743 46.515766,69.402429 29.314365,57.765051 13.530043,48.909187 Z M 136.59966,140.50253 c 67.30247,-96.952625 33.65123,-48.476362 0,0 z"
       style="fill:#0070df;fill-opacity:1;stroke-width:0.237211"
       id="path985"
       sodipodi:nodetypes="ccccccccccccc" />
    <path
       d="m 43.959936,70.869407 c 9.863602,8.91945 19.56581,19.21447 28.046543,32.613273 -5.138693,-2.06937 -14.391887,-3.24798 -20.742111,-9.632784 12.05352,10.724904 19.575419,22.835904 37.777305,37.344964 -5.40908,-0.42328 -6.092684,-0.56862 -14.076403,-3.06307 15.102217,22.54528 47.75255,39.11075 66.75547,15.07252 19.85812,-26.62505 -7.61169,-49.953031 -31.47564,-56.761322 5.07532,5.930267 6.1041,9.077239 9.77161,13.515575 C 103.91927,89.75518 85.248894,83.762963 69.835307,73.92461 74.481714,76.787992 80.06423,84.889537 83.561906,89.162453 69.817398,85.964721 56.792372,78.069056 43.959936,70.869407 Z m 95.599704,71.034303 c 54.71599,-78.821095 27.35798,-39.41066 0,0 z"
       style="fill:#178bff;fill-opacity:1;stroke-width:0.192849"
       id="path987"
       sodipodi:nodetypes="ccccccccccccc" />
    <ellipse
       cy="129.31383"
       cx="119.82774"
       id="ellipse1542"
       style="opacity:0.999;fill:#003f7f;fill-opacity:1;stroke:none;stroke-width:0.811761;stroke-linecap:round;stroke-linejoin:round;stroke-miterlimit:4;stroke-dasharray:none"
       transform="matrix(0.99998242,-0.00592983,0.00602374,0.99998186,0,0)"
       rx="20.763815"
       ry="20.601324" />
    <path
       d="m 128.43775,141.69648 5.36964,-0.0318 m -5.49591,-20.9299 5.36964,-0.0318 m -2.55855,20.97764 -0.12629,-20.96177 m 4.48554,10.45466 a 4.5339384,4.4224654 89.549451 0 1 -4.3951,4.56009 4.5339384,4.4224654 89.549451 0 1 -4.4497,-4.50764 4.5339384,4.4224654 89.549451 0 1 4.39509,-4.56007 4.5339384,4.4224654 89.549451 0 1 4.44971,4.50762"
       style="fill:#bfdfff;fill-opacity:1;stroke:#bfdfff;stroke-width:0.971;stroke-linecap:butt;stroke-linejoin:miter;stroke-miterlimit:4;stroke-dasharray:none;stroke-opacity:1"
       id="path992" />
    <path
       id="path994"
       style="fill:#bfdfff;fill-opacity:1;stroke:#bfdfff;stroke-width:0.742;stroke-linecap:butt;stroke-linejoin:miter;stroke-miterlimit:4;stroke-dasharray:none;stroke-opacity:1"
       d="m 118.01376,128.0465 3.53945,-0.021 m -3.62269,-13.79604 3.53947,-0.021 m -1.6865,13.82755 -0.0831,-13.81707 m 2.95665,6.89124 a 2.9885733,2.9150953 89.549451 0 1 -2.89703,3.0058 2.9885733,2.9150953 89.549451 0 1 -2.93306,-2.97123 2.9885733,2.9150953 89.549451 0 1 2.89706,-3.00578 2.9885733,2.9150953 89.549451 0 1 2.93303,2.97121" />
    <path
       d="m 106.06431,130.0249 3.18209,-0.0189 m -3.25694,-12.40327 3.18212,-0.0187 m -1.51625,12.43161 -0.075,-12.42218 m 2.65817,6.19555 a 2.6868617,2.6208016 89.549451 0 1 -2.60461,2.70235 2.6868617,2.6208016 89.549451 0 1 -2.63691,-2.67128 2.6868617,2.6208016 89.549451 0 1 2.60455,-2.70236 2.6868617,2.6208016 89.549451 0 1 2.63697,2.67129"
       style="fill:#bfdfff;fill-opacity:1;stroke:#bfdfff;stroke-width:0.697;stroke-linecap:butt;stroke-linejoin:miter;stroke-miterlimit:4;stroke-dasharray:none;stroke-opacity:1"
       id="path996" />
    <path
       id="path998"
       d="m 131.05943,131.1997 -11.31757,-10.07222 -12.12393,2.6769"
       style="fill:none;stroke:#bfdfff;stroke-width:0.51;stroke-linecap:butt;stroke-linejoin:miter;stroke-miterlimit:4;stroke-dasharray:none;stroke-opacity:1" />
    <g
       style="font-style:normal;font-variant:normal;font-weight:bold;font-stretch:normal;font-size:67.5124px;line-height:1.25;font-family:sans-serif;-inkscape-font-specification:'sans-serif, Bold';font-variant-ligatures:normal;font-variant-caps:normal;font-variant-numeric:normal;font-variant-east-asian:normal;opacity:0.999;fill:#003f7f;fill-opacity:1;stroke:none;stroke-width:0.703255"
       id="text1548"
       transform="scale(0.97243006,1.0283516)"
       aria-label="C  Met">
      <path
         id="path863"
         style="font-style:normal;font-variant:normal;font-weight:bold;font-stretch:normal;font-size:67.5124px;font-family:sans-serif;-inkscape-font-specification:'sans-serif, Bold';font-variant-ligatures:normal;font-variant-caps:normal;font-variant-numeric:normal;font-variant-east-asian:normal;fill:#003f7f;fill-opacity:1;stroke-width:0.703255"
         d="m 80.848486,145.05637 q -5.472196,0 -10.120267,-1.61528 -4.615105,-1.61529 -7.944574,-4.8129 -3.329469,-3.19761 -5.175511,-7.97754 -1.813077,-4.77993 -1.813077,-11.04329 0,-5.83481 1.747147,-10.58177 1.747147,-4.74697 5.076616,-8.14237 3.197609,-3.263536 7.911609,-5.043648 4.746966,-1.780112 10.351022,-1.780112 3.098714,0 5.571091,0.362615 2.505343,0.329651 4.615106,0.890056 2.208657,0.626336 3.988769,1.417497 1.813077,0.758196 3.164644,1.417497 V 110.0475 h -1.450462 q -0.923021,-0.79116 -2.340517,-1.879 -1.384532,-1.08785 -3.164644,-2.14273 -1.813077,-1.05488 -3.92284,-1.78011 -2.109762,-0.72523 -4.51621,-0.72523 -2.670168,0 -5.076616,0.85709 -2.406447,0.82412 -4.45028,2.76906 -1.944937,1.87901 -3.164643,4.97772 -1.186742,3.09871 -1.186742,7.51603 0,4.6151 1.285637,7.71382 1.318601,3.09871 3.296504,4.87882 2.010867,1.81308 4.483245,2.60424 2.472378,0.7582 4.878825,0.7582 2.307553,0 4.549176,-0.69227 2.274587,-0.69226 4.186559,-1.87901 1.615287,-0.95598 2.999819,-2.04383 1.384531,-1.08784 2.274587,-1.879 h 1.318602 v 11.73555 q -1.846042,0.82412 -3.527259,1.54936 -1.681217,0.72523 -3.527259,1.25267 -2.406448,0.69226 -4.51621,1.05488 -2.109763,0.36261 -5.801847,0.36261 z" />
      <path
         id="path865"
         style="font-style:normal;font-variant:normal;font-weight:bold;font-stretch:normal;font-size:67.5124px;font-family:sans-serif;-inkscape-font-specification:'sans-serif, Bold';font-variant-ligatures:normal;font-variant-caps:normal;font-variant-numeric:normal;font-variant-east-asian:normal;fill:#003f7f;fill-opacity:1;stroke-width:0.703255"
         d="m 202.44976,144.10039 h -12.59264 v -32.86615 l -9.09835,21.32838 h -8.73574 l -9.09835,-21.32838 v 32.86615 H 150.99134 V 95.015446 h 14.70241 l 11.04328,24.624884 11.01033,-24.624884 h 14.7024 z" />
      <path
         id="path867"
         style="font-style:normal;font-variant:normal;font-weight:bold;font-stretch:normal;font-size:67.5124px;font-family:sans-serif;-inkscape-font-specification:'sans-serif, Bold';font-variant-ligatures:normal;font-variant-caps:normal;font-variant-numeric:normal;font-variant-east-asian:normal;fill:#003f7f;fill-opacity:1;stroke-width:0.703255"
         d="m 250.74353,127.78269 h -27.16319 q 0.26372,4.35139 3.29651,6.65894 3.06574,2.30755 8.99945,2.30755 3.75802,0 7.28527,-1.35156 3.52726,-1.35157 5.5711,-2.90093 h 1.3186 v 9.5269 q -4.02174,1.61529 -7.58196,2.34052 -3.56022,0.72523 -7.87864,0.72523 -11.14219,0 -17.07589,-5.01069 -5.93371,-5.01068 -5.93371,-14.27386 0,-9.16428 5.60406,-14.50462 5.63702,-5.3733 15.42763,-5.3733 9.03242,0 13.5816,4.58214 4.54917,4.54918 4.54917,13.12009 z m -11.80148,-6.95562 q -0.0989,-3.72505 -1.84604,-5.60406 -1.74715,-1.879 -5.43923,-1.879 -3.42837,0 -5.63702,1.78011 -2.20866,1.78011 -2.47238,5.70295 z" />
      <path
         id="path869"
         style="font-style:normal;font-variant:normal;font-weight:bold;font-stretch:normal;font-size:67.5124px;font-family:sans-serif;-inkscape-font-specification:'sans-serif, Bold';font-variant-ligatures:normal;font-variant-caps:normal;font-variant-numeric:normal;font-variant-east-asian:normal;fill:#003f7f;fill-opacity:1;stroke-width:0.703255"
         d="m 282.78556,143.77074 q -1.91197,0.49447 -4.0547,0.75819 -2.14273,0.29669 -5.24144,0.29669 -6.92266,0 -10.31806,-2.80203 -3.36243,-2.80203 -3.36243,-9.59283 v -17.30664 h -4.87883 v -8.04347 h 4.87883 V 96.498873 h 11.86741 v 10.581777 h 11.10922 v 8.04347 h -11.10922 v 13.12008 q 0,1.94494 0.033,3.3954 0.033,1.45046 0.52745,2.60424 0.46151,1.15378 1.61528,1.84604 1.18674,0.6593 3.42837,0.6593 0.92302,0 2.40644,-0.39558 1.5164,-0.39558 2.10977,-0.72523 h 0.98895 z" />
    </g>
  </g>
</svg>
